<svg width="57" height="63" viewBox="0 0 57 63" fill="none" xmlns="http://www.w3.org/2000/svg">
<g clip-path="url(#clip0_74_804)">
<path d="M0.517262 1.99863C0.31328 1.99863 0.117652 2.07966 -0.0265859 2.2239C-0.170823 2.36814 -0.251855 2.56377 -0.251855 2.76775V48.5432C-0.251855 48.7472 -0.170823 48.9428 -0.026586 49.0871C0.117651 49.2313 0.313278 49.3124 0.517262 49.3124H20.8955C21.0995 49.3124 21.2951 49.2313 21.4394 49.0871C21.5836 48.9428 21.6646 48.7472 21.6646 48.5432C21.6646 48.3393 21.5836 48.1436 21.4394 47.9994C21.2951 47.8551 21.0995 47.7741 20.8955 47.7741H4.4926V3.53687H34.6879V18.7147C34.6879 18.9187 34.769 19.1143 34.9132 19.2586C35.0574 19.4028 35.2531 19.4839 35.4571 19.4839C35.661 19.4839 35.8567 19.4028 36.0009 19.2586C36.1451 19.1143 36.2262 18.9187 36.2262 18.7147V2.76775C36.2262 2.56377 36.1451 2.36814 36.0009 2.2239C35.8567 2.07966 35.661 1.99863 35.4571 1.99863H0.517262ZM1.28638 3.53687H2.95437V47.7741H1.28638V3.53687Z" fill="#CB9C68" stroke="#CB9C68" stroke-width="0.2"/>
<path d="M54.4078 11.994L54.4077 11.9942C52.5201 14.7588 45.8381 24.165 39.25 28.8858C38.8469 29.1751 38.3902 29.3809 37.9069 29.4914C37.5454 30.4699 36.9713 31.3561 36.2259 32.086V39.2569C36.2259 39.4609 36.1449 39.6565 36.0006 39.8007C35.8564 39.945 35.6608 40.026 35.4569 40.026C35.4569 40.026 35.4568 40.026 35.4568 40.026V39.926C35.2795 39.9262 35.1095 39.8561 34.9839 39.731C34.8583 39.606 34.7874 39.4362 34.7869 39.259L54.4078 11.994ZM54.4078 11.994C54.6792 11.5951 54.8047 11.1149 54.7633 10.6342C54.7219 10.1536 54.516 9.70188 54.1804 9.35529C53.8448 9.00871 53.4 8.78841 52.9209 8.73153C52.4419 8.67465 51.9579 8.78463 51.5505 9.04294C42.1012 15.0139 36.702 20.739 34.3226 23.6233L34.3226 23.6234M54.4078 11.994L34.3226 23.6234M31.8421 33.8883C32.8324 33.8947 33.8085 33.6605 34.6869 33.2068L31.8428 33.7883M31.8421 33.8883L31.8428 33.7883M31.8421 33.8883C31.8422 33.8883 31.8422 33.8883 31.8423 33.8883L31.8428 33.7883M31.8421 33.8883C31.2243 33.8852 30.6092 33.8067 30.0104 33.6545M31.8428 33.7883C31.233 33.7853 30.6258 33.7078 30.0348 33.5575M30.0104 33.6545C30.0105 33.6545 30.0106 33.6546 30.0107 33.6546L30.0348 33.5575M30.0104 33.6545C28.0438 33.1662 26.6643 32.2207 25.9333 30.8309M30.0104 33.6545C30.0103 33.6545 30.0103 33.6545 30.0102 33.6545L30.0348 33.5575M30.0348 33.5575L25.9333 30.8309M25.9333 30.8309L26.0218 30.7843L25.9333 30.8309C25.9333 30.8309 25.9333 30.8309 25.9333 30.8309ZM34.3226 23.6234C34.0641 23.9373 33.8597 24.2919 33.7176 24.6725C32.9807 24.6088 32.2383 24.7035 31.5405 24.9505C30.8181 25.2063 30.1614 25.619 29.6176 26.159L29.6173 26.1592M34.3226 23.6234L29.6173 26.1592M29.6173 26.1592C29.1267 26.6497 28.6576 26.8737 28.2154 26.8517L28.2149 26.8517M29.6173 26.1592L28.2149 26.8517M28.2149 26.8517C27.8747 26.8363 27.5756 26.6812 27.3575 26.5242M28.2149 26.8517L27.3575 26.5242M27.3575 26.5242C27.2491 26.4462 27.1626 26.3691 27.1032 26.3115M27.3575 26.5242L27.1032 26.3115M27.1032 26.3115C27.0735 26.2827 27.0507 26.2589 27.0354 26.2424M27.1032 26.3115L27.0354 26.2424M27.0354 26.2424C27.0277 26.2342 27.022 26.2278 27.0181 26.2235M27.0354 26.2424L27.0181 26.2235M27.0181 26.2235L27.0137 26.2184M27.0181 26.2235L27.0137 26.2184M27.0137 26.2184L27.013 26.2177M27.0137 26.2184L27.013 26.2177M27.013 26.2177C26.9279 26.1132 26.8169 26.0328 26.6909 25.9847C26.5642 25.9363 26.427 25.9223 26.2931 25.9441C26.1593 25.9658 26.0335 26.0226 25.9287 26.1086C25.8239 26.1946 25.7437 26.3067 25.6962 26.4336C25.6961 26.4337 25.6961 26.4338 25.6961 26.4339L25.7897 26.4689L27.013 26.2177ZM35.5091 24.6009L35.4319 24.5373L35.5091 24.6009C37.3735 22.3409 42.7545 16.4198 52.372 10.3421C52.4624 10.2849 52.5671 10.2546 52.6741 10.2547L52.6744 10.2547C52.7759 10.2544 52.8756 10.2818 52.9627 10.334C53.0498 10.3862 53.121 10.4612 53.1686 10.5509C53.2163 10.6405 53.2385 10.7415 53.233 10.8429C53.2275 10.9442 53.1944 11.0421 53.1374 11.126C51.2788 13.8479 44.7308 23.0651 38.3541 27.6347C37.916 27.9486 37.3594 28.0679 36.8345 28.0117C36.3089 27.9553 35.8257 27.7244 35.5287 27.3512C34.9213 26.5882 34.8834 25.3592 35.5091 24.6009ZM27.3011 30.1233C26.9837 29.4812 26.8527 28.7641 26.9216 28.0531C27.2949 28.246 27.7047 28.3595 28.1251 28.3855L28.1262 28.3855C29.0377 28.4315 29.9068 28.0429 30.705 27.2449C31.0783 26.8719 31.5289 26.5853 32.0249 26.4053C32.4942 26.2351 32.9934 26.1641 33.4909 26.1966C33.5528 27.0059 33.8433 27.7817 34.3296 28.433L34.3294 28.4331L34.3329 28.4373C34.8282 29.0304 35.5481 29.3278 36.2417 29.4848C35.4149 31.1648 33.4361 32.9174 30.382 32.1597C28.8413 31.7772 27.8133 31.0866 27.3011 30.1233Z" fill="white" stroke="white" stroke-width="0.2"/>
<path d="M20.9218 26.3178L20.9216 26.318C20.4643 26.6714 20.0944 27.1252 19.8405 27.6444C19.5866 28.1635 19.4556 28.7341 19.4574 29.3121L19.4574 29.3124L19.4574 30.8503C19.458 31.1263 19.5227 31.3983 19.6465 31.6449C19.7702 31.8916 19.9495 32.1061 20.1703 32.2716C20.1703 32.2716 20.1704 32.2717 20.1704 32.2717L23.2757 34.5882C23.2757 34.5882 23.2757 34.5882 23.2757 34.5882C23.3704 34.6588 23.4475 34.7503 23.5012 34.8554C23.5548 34.9607 23.5835 35.0768 23.5851 35.1949C23.5866 35.313 23.5609 35.4298 23.51 35.5364C23.4591 35.6429 23.3843 35.7363 23.2915 35.8094L20.1327 38.2946L22.3219 39.7384C22.4173 39.8012 22.4975 39.8845 22.5567 39.9822L22.4712 40.034L22.5567 39.9822C22.6159 40.0799 22.6526 40.1895 22.6641 40.3031C22.6757 40.4168 22.6617 40.5315 22.6234 40.6391C22.585 40.7467 22.5232 40.8443 22.4424 40.925L20.9218 26.3178ZM20.9218 26.3178L23.288 24.4775C23.437 24.3617 23.5382 24.1952 23.5723 24.0096C23.6065 23.824 23.5712 23.6324 23.4733 23.4711C23.4733 23.4711 23.4733 23.4711 23.4733 23.4711L19.688 17.2363C19.3232 16.6352 19.1302 15.9457 19.1301 15.2426C19.1301 15.2426 19.1301 15.2426 19.1301 15.2426V6.05291C19.1301 5.84892 19.0491 5.6533 18.9049 5.50906C18.7606 5.36482 18.565 5.28379 18.361 5.28379C18.157 5.28379 17.9614 5.36482 17.8172 5.50906C17.6729 5.6533 17.5919 5.84892 17.5919 6.05291V15.2422C17.5919 16.227 17.8621 17.1929 18.3732 18.0346L21.8032 23.6838L19.978 25.1035L20.9218 26.3178ZM20.2422 43.1253L22.4424 40.9251L18.6224 43.0076C18.4829 43.3442 18.4116 43.7053 18.4126 44.0697H18.3126V44.0698V44.9566C18.3126 45.1605 18.3937 45.3562 18.5379 45.5004C18.6821 45.6446 18.8778 45.7257 19.0817 45.7257C19.2857 45.7257 19.4814 45.6446 19.6256 45.5004C19.7698 45.3562 19.8509 45.1605 19.8509 44.9566L19.8509 44.0697L19.8509 44.0694C19.8504 43.894 19.8847 43.7203 19.9518 43.5582C20.0189 43.3962 20.1176 43.2491 20.2419 43.1255L20.2422 43.1253ZM20.6883 40.5038L19.1546 42.0373L18.5481 27.0119C18.1979 27.728 18.0171 28.5149 18.0196 29.312H17.9196V29.3122L17.9196 30.85L17.9196 30.8502C17.9207 31.3655 18.0415 31.8734 18.2725 32.3339C18.5035 32.7945 18.8383 33.195 19.2506 33.504L19.2508 33.5042L21.5518 35.2207L18.3439 37.7452C18.2482 37.8205 18.1717 37.9175 18.1207 38.0282C18.0698 38.1389 18.0459 38.2601 18.051 38.3819C18.0562 38.5036 18.0901 38.6224 18.1501 38.7284C18.2101 38.8345 18.2945 38.9247 18.3962 38.9918C18.3962 38.9918 18.3962 38.9918 18.3962 38.9918L20.6883 40.5038Z" fill="#CB9C68" stroke="#CB9C68" stroke-width="0.2"/>
<path d="M8.87754 16.6611L8.87754 16.6612C8.8775 17.2195 9.04303 17.7654 9.3532 18.2296C9.66338 18.6939 10.1043 19.0557 10.6201 19.2694C11.1359 19.4831 11.7035 19.539 12.2511 19.4301C12.7988 19.3212 13.3018 19.0523 13.6966 18.6575C14.0914 18.2627 14.3602 17.7597 14.4692 17.2121C14.5781 16.6645 14.5222 16.0969 14.3085 15.581C14.0948 15.0652 13.7329 14.6243 13.2687 14.3141C12.8044 14.004 12.2586 13.8384 11.7003 13.8385L11.7002 13.8385C10.9518 13.8393 10.2344 14.137 9.70519 14.6661C9.17603 15.1953 8.87838 15.9128 8.87754 16.6611ZM12.985 16.6613C12.985 16.9154 12.9097 17.1638 12.7685 17.375C12.6274 17.5863 12.4268 17.751 12.192 17.8483C11.9573 17.9455 11.699 17.971 11.4498 17.9214C11.2005 17.8719 10.9716 17.7495 10.7919 17.5699C10.6122 17.3902 10.4899 17.1613 10.4403 16.9121C10.3907 16.6629 10.4161 16.4046 10.5134 16.1698C10.6106 15.9351 10.7752 15.7344 10.9865 15.5932C11.1978 15.4521 11.4462 15.3767 11.7003 15.3767C12.0408 15.3771 12.3673 15.5126 12.6082 15.7534C12.849 15.9942 12.9845 16.3207 12.985 16.6613Z" fill="#CB9C68" stroke="#CB9C68" stroke-width="0.2"/>
<path d="M29.3936 16.6613V16.6612C29.3936 16.1029 29.2281 15.5572 28.9179 15.093C28.6077 14.6288 28.1669 14.267 27.6511 14.0533C27.1353 13.8397 26.5677 13.7838 26.0202 13.8927C25.4726 14.0016 24.9697 14.2705 24.5749 14.6652C24.1801 15.06 23.9113 15.563 23.8024 16.1105C23.6935 16.6581 23.7494 17.2256 23.963 17.7414C24.1767 18.2572 24.5385 18.6981 25.0027 19.0082C25.4668 19.3184 26.0126 19.4839 26.5709 19.4839H26.571C27.3193 19.4831 28.0368 19.1855 28.566 18.6563C29.0951 18.1271 29.3928 17.4097 29.3936 16.6613ZM25.2864 16.6612C25.2864 16.4072 25.3617 16.1588 25.5029 15.9476C25.644 15.7363 25.8446 15.5717 26.0793 15.4745C26.314 15.3773 26.5723 15.3518 26.8215 15.4014C27.0706 15.451 27.2995 15.5733 27.4792 15.7529C27.6588 15.9326 27.7811 16.1615 27.8307 16.4106C27.8803 16.6598 27.8548 16.9181 27.7576 17.1528C27.6604 17.3875 27.4957 17.5881 27.2845 17.7292C27.0733 17.8704 26.825 17.9457 26.571 17.9457C26.2304 17.9453 25.9039 17.8098 25.6631 17.569C25.4223 17.3282 25.2868 17.0017 25.2864 16.6611L25.1864 16.6612H25.2864Z" fill="#CB9C68" stroke="#CB9C68" stroke-width="0.2"/>
<mask id="path-6-outside-1_74_804" maskUnits="userSpaceOnUse" x="22.168" y="34.9424" width="36" height="29" fill="black">
<rect fill="white" x="22.168" y="34.9424" width="36" height="29"/>
<path d="M57.1516 46.948C57.1534 44.5205 56.545 42.1316 55.3822 40.0008C54.7329 38.7634 53.7542 37.7295 52.5542 37.0134C51.3542 36.2973 49.9796 35.9268 48.5823 35.9429C47.4577 35.9661 46.3535 36.2475 45.3549 36.7654C44.3564 37.2832 43.4902 38.0236 42.8233 38.9294C40.9633 41.8149 37.7126 42.2534 35.8119 41.9519C34.5688 41.7465 33.3043 41.7036 32.0501 41.8244C27.6288 42.2794 24.8005 44.2663 23.6441 47.7303C22.5249 51.0827 23.4116 54.7958 25.9585 57.4202C29.3385 60.9035 34.2274 62.9013 39.372 62.9013C49.1755 62.9013 57.1516 55.7446 57.1516 46.948ZM39.3722 61.563C34.5876 61.563 30.0487 59.7134 26.9189 56.4882C24.7217 54.2238 23.9532 51.0303 24.9135 48.1539C25.9023 45.1926 28.2816 43.5574 32.1874 43.1556C32.5924 43.1144 32.9993 43.0939 33.4065 43.0944C34.1418 43.0963 34.8759 43.1562 35.6018 43.2735C37.4168 43.5618 41.4954 43.3852 43.9562 39.6443C44.5037 38.9254 45.2065 38.3395 46.0121 37.9302C46.8178 37.521 47.7054 37.299 48.6089 37.2807C49.7601 37.2709 50.8916 37.5789 51.879 38.171C52.8663 38.763 53.671 39.6161 54.2046 40.6363C55.2613 42.5721 55.8146 44.7425 55.8133 46.948C55.8133 55.0066 48.4378 61.563 39.372 61.563H39.3722Z"/>
</mask>
<path d="M57.1516 46.948C57.1534 44.5205 56.545 42.1316 55.3822 40.0008C54.7329 38.7634 53.7542 37.7295 52.5542 37.0134C51.3542 36.2973 49.9796 35.9268 48.5823 35.9429C47.4577 35.9661 46.3535 36.2475 45.3549 36.7654C44.3564 37.2832 43.4902 38.0236 42.8233 38.9294C40.9633 41.8149 37.7126 42.2534 35.8119 41.9519C34.5688 41.7465 33.3043 41.7036 32.0501 41.8244C27.6288 42.2794 24.8005 44.2663 23.6441 47.7303C22.5249 51.0827 23.4116 54.7958 25.9585 57.4202C29.3385 60.9035 34.2274 62.9013 39.372 62.9013C49.1755 62.9013 57.1516 55.7446 57.1516 46.948ZM39.3722 61.563C34.5876 61.563 30.0487 59.7134 26.9189 56.4882C24.7217 54.2238 23.9532 51.0303 24.9135 48.1539C25.9023 45.1926 28.2816 43.5574 32.1874 43.1556C32.5924 43.1144 32.9993 43.0939 33.4065 43.0944C34.1418 43.0963 34.8759 43.1562 35.6018 43.2735C37.4168 43.5618 41.4954 43.3852 43.9562 39.6443C44.5037 38.9254 45.2065 38.3395 46.0121 37.9302C46.8178 37.521 47.7054 37.299 48.6089 37.2807C49.7601 37.2709 50.8916 37.5789 51.879 38.171C52.8663 38.763 53.671 39.6161 54.2046 40.6363C55.2613 42.5721 55.8146 44.7425 55.8133 46.948C55.8133 55.0066 48.4378 61.563 39.372 61.563H39.3722Z" fill="#CB9C68"/>
<path d="M55.3822 40.0008L55.2051 40.0937L55.2067 40.0966L55.3822 40.0008ZM48.5823 35.9429L48.58 35.7429L48.5782 35.7429L48.5823 35.9429ZM42.8233 38.9294L42.6619 38.8106L42.6552 38.8211L42.8233 38.9294ZM35.8119 41.9519L35.7793 42.1493L35.7806 42.1495L35.8119 41.9519ZM32.0501 41.8244L32.0309 41.6253L32.0296 41.6255L32.0501 41.8244ZM23.6441 47.7303L23.4544 47.6669L23.4544 47.6669L23.6441 47.7303ZM25.9585 57.4202L26.102 57.2809L26.102 57.2809L25.9585 57.4202ZM26.9189 56.4882L26.7754 56.6275L26.7754 56.6275L26.9189 56.4882ZM24.9135 48.1539L24.7238 48.0906L24.7238 48.0906L24.9135 48.1539ZM32.1874 43.1556L32.1671 42.9566L32.1669 42.9566L32.1874 43.1556ZM33.4065 43.0944L33.407 42.8944H33.4067L33.4065 43.0944ZM35.6018 43.2735L35.5699 43.471L35.5704 43.4711L35.6018 43.2735ZM43.9562 39.6443L43.7967 39.5228L43.7891 39.5343L43.9562 39.6443ZM48.6089 37.2807L48.6071 37.0807L48.6048 37.0808L48.6089 37.2807ZM54.2046 40.6363L54.0273 40.729L54.029 40.7321L54.2046 40.6363ZM55.8133 46.948L55.6133 46.9479V46.948H55.8133ZM57.3516 46.9481C57.3534 44.4872 56.7366 42.0653 55.5578 39.905L55.2067 40.0966C56.3533 42.198 56.9534 44.5539 56.9516 46.9478L57.3516 46.9481ZM55.5593 39.9079C54.8929 38.6378 53.8884 37.5767 52.6567 36.8417L52.4517 37.1852C53.6201 37.8824 54.5729 38.889 55.2051 40.0937L55.5593 39.9079ZM52.6567 36.8417C51.425 36.1067 50.0142 35.7264 48.58 35.7429L48.5846 36.1429C49.9451 36.1272 51.2834 36.4879 52.4517 37.1852L52.6567 36.8417ZM48.5782 35.7429C47.4229 35.7668 46.2886 36.0559 45.2628 36.5878L45.447 36.9429C46.4183 36.4392 47.4925 36.1654 48.5864 36.1428L48.5782 35.7429ZM45.2628 36.5878C44.2371 37.1198 43.3473 37.8804 42.6622 38.8109L42.9843 39.048C43.6331 38.1669 44.4756 37.4466 45.447 36.9429L45.2628 36.5878ZM42.6552 38.8211C40.8534 41.6163 37.6977 42.0486 35.8432 41.7544L35.7806 42.1495C37.7274 42.4583 41.0733 42.0134 42.9914 39.0378L42.6552 38.8211ZM35.8445 41.7546C34.5843 41.5464 33.3023 41.5029 32.0309 41.6254L32.0693 42.0235C33.3062 41.9044 34.5533 41.9467 35.7793 42.1493L35.8445 41.7546ZM32.0296 41.6255C29.7946 41.8555 27.947 42.4742 26.5078 43.4853C25.0663 44.4981 24.0453 45.897 23.4544 47.6669L23.8338 47.7936C24.3993 46.0996 25.3706 44.7731 26.7377 43.8126C28.1071 42.8506 29.8843 42.2484 32.0706 42.0234L32.0296 41.6255ZM23.4544 47.6669C22.3106 51.0933 23.2183 54.8838 25.8149 57.5595L26.102 57.2809C23.6049 54.7077 22.7393 51.0722 23.8338 47.7936L23.4544 47.6669ZM25.8149 57.5595C29.235 61.0841 34.1769 63.1013 39.372 63.1013V62.7013C34.2779 62.7013 29.4419 60.7228 26.102 57.2809L25.8149 57.5595ZM39.372 63.1013C49.265 63.1013 57.3516 55.8749 57.3516 46.948H56.9516C56.9516 55.6143 49.086 62.7013 39.372 62.7013V63.1013ZM39.3722 61.363C34.6378 61.363 30.1519 59.5326 27.0625 56.349L26.7754 56.6275C29.9454 59.8942 34.5374 61.763 39.3722 61.763V61.363ZM27.0625 56.349C24.9146 54.1354 24.1678 51.0193 25.1032 48.2172L24.7238 48.0906C23.7387 51.0414 24.5288 54.3121 26.7754 56.6275L27.0625 56.349ZM25.1032 48.2172C25.5849 46.7746 26.4017 45.6625 27.5698 44.8598C28.7409 44.055 30.2771 43.5532 32.2078 43.3545L32.1669 42.9566C30.1919 43.1598 28.5855 43.6765 27.3433 44.5301C26.0981 45.3858 25.2309 46.5719 24.7238 48.0906L25.1032 48.2172ZM32.2076 43.3546C32.6059 43.314 33.006 43.294 33.4063 43.2944L33.4067 42.8944C32.9927 42.8939 32.579 42.9147 32.1671 42.9566L32.2076 43.3546ZM33.406 43.2944C34.1308 43.2963 34.8543 43.3553 35.5699 43.471L35.6337 43.0761C34.8974 42.9571 34.1529 42.8963 33.407 42.8944L33.406 43.2944ZM35.5704 43.4711C37.4225 43.7653 41.6005 43.5893 44.1233 39.7542L43.7891 39.5343C41.3902 43.1811 37.4111 43.3584 35.6332 43.076L35.5704 43.4711ZM44.1153 39.7654C44.6446 39.0705 45.3239 38.5042 46.1027 38.1085L45.9216 37.7519C45.0891 38.1748 44.3629 38.7803 43.7971 39.5231L44.1153 39.7654ZM46.1027 38.1085C46.8815 37.7129 47.7396 37.4983 48.6129 37.4807L48.6048 37.0808C47.6713 37.0996 46.754 37.329 45.9216 37.7519L46.1027 38.1085ZM48.6106 37.4807C49.725 37.4712 50.8204 37.7694 51.7761 38.3425L51.9818 37.9995C50.9629 37.3885 49.7952 37.0706 48.6071 37.0807L48.6106 37.4807ZM51.7761 38.3425C52.7319 38.9156 53.5109 39.7414 54.0274 40.729L54.3818 40.5436C53.8312 39.4908 53.0007 38.6105 51.9818 37.9995L51.7761 38.3425ZM54.029 40.7321C55.0697 42.6385 55.6145 44.7759 55.6133 46.9479L56.0133 46.9481C56.0146 44.7091 55.453 42.5057 54.3801 40.5404L54.029 40.7321ZM55.6133 46.948C55.6133 54.8747 48.3501 61.363 39.372 61.363V61.763C48.5254 61.763 56.0133 55.1386 56.0133 46.948H55.6133ZM39.372 61.763H39.3722V61.363H39.372V61.763Z" fill="#CB9C68" mask="url(#path-6-outside-1_74_804)"/>
<path d="M33.3255 47.3258L33.3254 47.3258C32.3537 47.3258 31.4039 47.614 30.596 48.1538C29.7881 48.6937 29.1584 49.461 28.7866 50.3587C28.4148 51.2564 28.3175 52.2442 28.5071 53.1972C28.6967 54.1502 29.1646 55.0256 29.8517 55.7127C30.5388 56.3997 31.4142 56.8676 32.3672 57.0571C33.3202 57.2467 34.308 57.1494 35.2057 56.7775C36.1034 56.4057 36.8706 55.776 37.4105 54.9681C37.9503 54.1602 38.2384 53.2103 38.2384 52.2387V52.2386C38.2371 50.936 37.7191 49.6871 36.798 48.7661C35.8769 47.845 34.628 47.327 33.3255 47.3258ZM33.3252 55.6133C32.6579 55.6132 32.0055 55.4153 31.4506 55.0445C30.8957 54.6736 30.4631 54.1466 30.2078 53.5299C29.9524 52.9133 29.8856 52.2348 30.0158 51.5802C30.146 50.9256 30.4674 50.3243 30.9394 49.8524C31.4114 49.3804 32.0127 49.059 32.6673 48.9288C33.3219 48.7987 34.0004 48.8655 34.617 49.1209C35.2336 49.3763 35.7607 49.8089 36.1315 50.3638C36.5023 50.9187 36.7002 51.5711 36.7002 52.2385C36.699 53.1332 36.343 53.9909 35.7103 54.6236C35.0777 55.2562 34.2199 55.6121 33.3252 55.6133Z" fill="#CB9C68" stroke="#CB9C68" stroke-width="0.2"/>
<path d="M45.2329 49.8907H45.2328C44.4348 49.8907 43.6547 50.1274 42.9911 50.5708C42.3275 51.0141 41.8104 51.6443 41.505 52.3816C41.1996 53.1189 41.1197 53.9302 41.2754 54.713C41.4311 55.4957 41.8154 56.2147 42.3797 56.7789C42.9441 57.3432 43.663 57.7275 44.4458 57.8832C45.2285 58.0389 46.0398 57.9589 46.7771 57.6535C47.5144 57.3481 48.1446 56.8309 48.5879 56.1673C49.0312 55.5037 49.2679 54.7236 49.2678 53.9255V53.9254C49.2666 52.8557 48.8411 51.8301 48.0846 51.0738C47.3282 50.3174 46.3027 49.8919 45.2329 49.8907ZM45.2327 56.4223C44.7389 56.4222 44.2563 56.2758 43.8457 56.0015C43.4351 55.7271 43.1151 55.3372 42.9261 54.881C42.7372 54.4248 42.6877 53.9227 42.7841 53.4384C42.8804 52.9541 43.1182 52.5092 43.4674 52.1601C43.8165 51.8109 44.2614 51.5731 44.7457 51.4767C45.2301 51.3804 45.7321 51.4299 46.1883 51.6188C46.6445 51.8078 47.0345 52.1278 47.3088 52.5384C47.5831 52.949 47.7296 53.4316 47.7296 53.9254C47.7288 54.5873 47.4654 55.222 46.9974 55.69C46.5293 56.1581 45.8947 56.4214 45.2327 56.4223Z" fill="#CB9C68" stroke="#CB9C68" stroke-width="0.2"/>
<path d="M49.759 41.0008L49.7589 41.0008C49.0867 41.0008 48.4295 41.2001 47.8706 41.5735C47.3116 41.947 46.876 42.4778 46.6187 43.0988C46.3614 43.7199 46.2941 44.4033 46.4253 45.0626C46.5564 45.7219 46.8801 46.3275 47.3554 46.8029C47.8308 47.2782 48.4364 47.6019 49.0957 47.733C49.755 47.8642 50.4384 47.7968 51.0594 47.5396C51.6805 47.2823 52.2113 46.8467 52.5847 46.2877C52.9582 45.7287 53.1575 45.0716 53.1575 44.3994V44.3993C53.1564 43.4983 52.798 42.6345 52.1609 41.9974C51.5238 41.3603 50.66 41.0019 49.759 41.0008ZM51.0737 45.7144C50.7308 46.0574 50.2678 46.2529 49.7835 46.2599L49.7589 46.2599C49.3909 46.2599 49.0312 46.1509 48.7252 45.9464C48.4192 45.742 48.1807 45.4515 48.0399 45.1115C47.899 44.7715 47.8622 44.3974 47.9339 44.0365C48.0057 43.6756 48.1829 43.3441 48.4431 43.0839C48.7033 42.8237 49.0348 42.6464 49.3957 42.5746C49.7566 42.5028 50.1307 42.5397 50.4707 42.6805C50.8106 42.8213 51.1012 43.0598 51.3057 43.3657C51.5101 43.6717 51.6192 44.0313 51.6192 44.3993C51.6187 44.8926 51.4225 45.3655 51.0737 45.7144Z" fill="#CB9C68" stroke="#CB9C68" stroke-width="0.2"/>
</g>
<defs>
<clipPath id="clip0_74_804">
<rect width="57" height="63" fill="white"/>
</clipPath>
</defs>
</svg>
