<svg width="26" height="26" viewBox="0 0 26 26" fill="none" xmlns="http://www.w3.org/2000/svg">
<g clip-path="url(#clip0_74_575)">
<path d="M22.7499 26.0001H16.2501V16.2501H19.4024L20.2313 12.9999H16.2501V9.09992C16.2501 8.02304 17.123 7.14992 18.2001 7.14992H20.1501V3.9H18.2001C15.3301 3.90452 13.0044 6.22991 12.9999 9.09992V12.9999H9.75V16.2501H12.9999V26.0001H3.24992C1.45512 26.0001 0 24.545 0 22.7499V3.24992C0 1.45512 1.45512 0 3.24992 0H22.7499C24.545 0 26.0001 1.45512 26.0001 3.24992V22.7499C26.0001 24.545 24.545 26.0001 22.7499 26.0001ZM17.55 24.6999H22.7499C23.827 24.6999 24.6999 23.827 24.6999 22.7499V3.24992C24.6999 2.17304 23.827 1.29992 22.7499 1.29992H3.24992C2.17304 1.29992 1.29992 2.17304 1.29992 3.24992V22.7499C1.29992 23.827 2.17304 24.6999 3.24992 24.6999H11.7V17.55H8.45008V11.7H11.7V9.09992C11.7045 5.51199 14.6119 2.60436 18.2001 2.60008H21.45V8.45008H18.2001C17.8411 8.45008 17.55 8.74096 17.55 9.09992V11.7H21.9049L20.41 17.55H17.55V24.6999Z" fill="white"/>
</g>
<defs>
<clipPath id="clip0_74_575">
<rect width="26" height="26" fill="white"/>
</clipPath>
</defs>
</svg>
