<svg width="27" height="27" viewBox="0 0 27 27" fill="none" xmlns="http://www.w3.org/2000/svg">
<path d="M7.8 0.599609C3.49949 0.599609 0 4.0991 0 8.39961V19.1996C0 23.5001 3.49949 26.9996 7.8 26.9996H18.6C22.9005 26.9996 26.4 23.5001 26.4 19.1996V8.39961C26.4 4.0991 22.9005 0.599609 18.6 0.599609H7.8ZM7.8 1.79961H18.6C22.2519 1.79961 25.2 4.74772 25.2 8.39961V19.1996C25.2 22.8515 22.2519 25.7996 18.6 25.7996H7.8C4.14811 25.7996 1.2 22.8515 1.2 19.1996V8.39961C1.2 4.74772 4.14811 1.79961 7.8 1.79961ZM20.4 5.39961C20.0817 5.39961 19.7765 5.52604 19.5515 5.75108C19.3264 5.97612 19.2 6.28135 19.2 6.59961C19.2 6.91787 19.3264 7.22309 19.5515 7.44814C19.7765 7.67318 20.0817 7.79961 20.4 7.79961C20.7183 7.79961 21.0235 7.67318 21.2485 7.44814C21.4736 7.22309 21.6 6.91787 21.6 6.59961C21.6 6.28135 21.4736 5.97612 21.2485 5.75108C21.0235 5.52604 20.7183 5.39961 20.4 5.39961ZM13.2 7.19961C9.56203 7.19961 6.6 10.1616 6.6 13.7996C6.6 17.4376 9.56203 20.3996 13.2 20.3996C16.838 20.3996 19.8 17.4376 19.8 13.7996C19.8 10.1616 16.838 7.19961 13.2 7.19961ZM13.2 8.39961C16.1894 8.39961 18.6 10.8102 18.6 13.7996C18.6 16.7891 16.1894 19.1996 13.2 19.1996C10.2106 19.1996 7.8 16.7891 7.8 13.7996C7.8 10.8102 10.2106 8.39961 13.2 8.39961Z" fill="white" fill-opacity="0.8"/>
</svg>
