<svg width="64" height="64" viewBox="0 0 64 64" fill="none" xmlns="http://www.w3.org/2000/svg">
<g clip-path="url(#clip0_74_794)">
<path d="M54.0036 52.0011C53.804 51.5234 53.2551 51.2979 52.7772 51.4972C52.2994 51.6968 52.0738 52.2459 52.2733 52.7236C53.7701 56.3074 54.5288 60.0938 54.5288 63.9775C54.5288 64.0588 54.4627 64.1249 54.3815 64.1249H47.7326L45.5596 48.2005L49.2814 49.6681C49.6801 49.8254 50.0584 50.0312 50.4061 50.2803C50.5714 50.3988 50.7622 50.4556 50.9512 50.4556C51.2433 50.4556 51.5311 50.3195 51.7142 50.064C52.0157 49.6431 51.9189 49.0575 51.4979 48.756C51.0253 48.4175 50.5111 48.1375 49.9694 47.9239L39.212 43.682C38.9803 43.5907 38.8307 43.3709 38.8307 43.1219V39.7806C42.2747 37.2002 43.9381 33.7132 44.5729 30.0854C46.9203 29.975 48.7961 28.0311 48.7961 25.657C48.7961 24.0127 47.8957 22.5757 46.5627 21.8102C46.5763 21.762 46.5873 21.7124 46.5932 21.6609C46.7753 20.064 46.8677 18.0129 46.8677 15.5645C46.8677 8.57312 43.2268 5.28875 40.1725 3.76475C37.2496 2.30613 34.1013 2 31.975 2C29.8486 2 26.7003 2.30613 23.7773 3.76475C20.723 5.28875 17.0821 8.57312 17.0821 15.5645C17.0821 18.1586 17.1855 20.2948 17.3895 21.9329C16.1678 22.7234 15.3571 24.0969 15.3571 25.657C15.3571 27.9797 17.1528 29.8896 19.4286 30.0748C19.5751 30.9105 19.775 31.7384 20.0397 32.5491C20.2003 33.0414 20.73 33.3099 21.222 33.1493C21.7142 32.9885 21.9828 32.4592 21.8221 31.9671C20.1923 26.9765 21.2277 21.1624 22.3833 17.1639C22.5718 16.5116 22.8341 15.8805 23.1628 15.2881C23.8371 14.073 25.3393 13.604 26.5827 14.2201C28.1391 14.9914 29.9605 15.3991 31.85 15.3991C33.8316 15.3991 35.726 14.9541 37.3283 14.1124C38.5377 13.4773 40.0297 13.9032 40.7252 15.0822C41.1102 15.7347 41.4121 16.4351 41.6227 17.1639C42.4562 20.0479 43.3551 24.3612 42.9041 28.5321C42.403 33.1673 40.3491 36.658 36.7996 38.9075C33.8857 40.7541 30.1201 40.754 27.2063 38.9075C25.6641 37.9301 24.3916 36.7089 23.4243 35.2775C23.1343 34.8485 22.5517 34.7357 22.1226 35.0257C21.6936 35.3156 21.581 35.8985 21.8708 36.3275C22.7578 37.6399 23.8645 38.7956 25.1688 39.7762V43.1221C25.1688 43.3711 25.0192 43.591 24.7876 43.6823L14.0302 47.9241C12.2808 48.6139 10.8525 50.0008 10.1113 51.729C8.44208 55.6215 7.5957 59.7425 7.5957 63.9777C7.59595 65.0928 8.5032 66 9.61833 66H54.3815C55.4966 66 56.4038 65.0928 56.4038 63.9776C56.4038 59.8445 55.5962 55.815 54.0036 52.0011ZM44.8154 28.1733C44.9549 26.4664 44.8997 24.7585 44.7256 23.1273C45.9647 23.3045 46.9212 24.3699 46.9212 25.6571C46.9212 26.9131 46.0107 27.9584 44.8154 28.1733ZM17.2321 25.6571C17.2321 24.4233 18.11 23.3907 19.274 23.151C19.1013 24.7706 19.0482 26.4575 19.184 28.1401C18.0656 27.8665 17.2321 26.8586 17.2321 25.6571ZM42.3402 14.1298C41.1361 12.0884 38.5513 11.3518 36.4563 12.4526C35.1218 13.1536 33.5289 13.5243 31.85 13.5243C30.2477 13.5243 28.7142 13.184 27.4152 12.5402C25.2723 11.4785 22.6843 12.2859 21.5233 14.3785C21.1263 15.094 20.8096 15.856 20.5821 16.6435C20.1895 18.0021 19.8113 19.5615 19.5358 21.2314C19.4225 21.2377 19.3106 21.2493 19.1997 21.2641C19.039 19.7664 18.9572 17.8575 18.9572 15.5646C18.9572 5.01412 28.061 3.87513 31.9751 3.87513C35.8892 3.87513 44.993 5.01412 44.993 15.5646C44.993 17.8369 44.9122 19.7445 44.7529 21.2418C44.6584 21.2335 44.5631 21.2285 44.4671 21.2262C44.1897 19.5389 43.8097 17.9779 43.4241 16.6435C43.1697 15.7634 42.8051 14.9178 42.3402 14.1298ZM45.8402 64.125H42.5651V60.9814C42.5651 59.9631 41.7366 59.1346 40.7184 59.1346H31.4416V57.3544C31.4416 56.8366 31.0218 56.4169 30.5041 56.4169C29.9863 56.4169 29.5666 56.8366 29.5666 57.3544V59.1346H27.5965V57.3544C27.5965 56.8366 27.1767 56.4169 26.659 56.4169C26.1412 56.4169 25.7215 56.8366 25.7215 57.3544V59.1346H23.8372C22.819 59.1346 21.9906 59.963 21.9906 60.9814V64.125H18.1596L20.4402 47.412L22.7446 46.5033V49.0475C22.7446 51.8456 25.0211 54.122 27.8192 54.122H36.1807C38.9788 54.122 41.2553 51.8456 41.2553 49.0475V46.5033L42.4163 46.9611L43.5597 47.412L45.8402 64.125ZM40.6901 64.0074H31.4415V61.0096H40.6901V64.0074ZM29.5665 64.0074H27.5963V61.0096H29.5665V64.0074ZM25.7213 64.0074H23.8655V61.0096H25.7213V64.0074ZM39.3802 46.403V49.0475C39.3802 50.8118 37.945 52.247 36.1806 52.247H27.8191C26.0548 52.247 24.6195 50.8118 24.6195 49.0475V46.4258C26.7796 48.0989 29.3823 48.9388 31.9872 48.9388C34.599 48.9389 37.211 48.0934 39.3802 46.403ZM32.003 42.166C33.7056 42.166 35.4075 41.7675 36.9557 40.9738V43.1221C36.9557 43.9302 37.3401 44.6628 37.9698 45.1208C34.4153 47.7127 29.5648 47.7066 26.0176 45.1297C26.6547 44.6722 27.044 43.9355 27.044 43.1221V40.9705C28.5938 41.7664 30.2981 42.166 32.003 42.166ZM9.47083 63.9775C9.47083 59.9979 10.2662 56.1255 11.8347 52.4679C12.38 51.1963 13.431 50.1759 14.7181 49.6684L18.4401 48.2007L16.2671 64.125H9.61833C9.53695 64.125 9.47083 64.0588 9.47083 63.9775Z" fill="#CB9C68"/>
<path d="M24.9 20.4998L24.9 20.4999C24.9 20.8163 24.9938 21.1257 25.1696 21.3888C25.3454 21.652 25.5953 21.8571 25.8877 21.9782C26.18 22.0993 26.5017 22.131 26.8121 22.0693C27.1225 22.0075 27.4076 21.8551 27.6314 21.6314C27.8551 21.4076 28.0075 21.1225 28.0693 20.8121C28.131 20.5017 28.0993 20.18 27.9782 19.8877C27.8571 19.5953 27.652 19.3454 27.3888 19.1696C27.1257 18.9938 26.8163 18.9 26.4999 18.9L26.4998 18.9C26.0756 18.9005 25.669 19.0692 25.3691 19.3691C25.0692 19.669 24.9005 20.0756 24.9 20.4998ZM27.1627 20.5C27.1627 20.6311 27.1238 20.7592 27.051 20.8682C26.9782 20.9772 26.8747 21.0621 26.7536 21.1123C26.6325 21.1625 26.4992 21.1756 26.3706 21.1501C26.2421 21.1245 26.124 21.0614 26.0313 20.9687C25.9386 20.876 25.8754 20.7579 25.8498 20.6293C25.8243 20.5008 25.8374 20.3675 25.8875 20.2464C25.9377 20.1253 26.0227 20.0217 26.1317 19.9489C26.2407 19.8761 26.3688 19.8372 26.4999 19.8372V19.7372L26.4998 19.8372C26.6755 19.8374 26.844 19.9073 26.9683 20.0315C27.0926 20.1558 27.1625 20.3243 27.1627 20.5Z" fill="white" stroke="white" stroke-width="0.2"/>
<path d="M34.9 20.4998L34.9 20.4999C34.9 20.8163 34.9938 21.1257 35.1696 21.3888C35.3454 21.652 35.5953 21.8571 35.8877 21.9782C36.18 22.0993 36.5017 22.131 36.8121 22.0693C37.1225 22.0075 37.4076 21.8551 37.6314 21.6314C37.8551 21.4076 38.0075 21.1225 38.0693 20.8121C38.131 20.5017 38.0993 20.18 37.9782 19.8877C37.8571 19.5953 37.652 19.3454 37.3888 19.1696C37.1257 18.9938 36.8163 18.9 36.4999 18.9L36.4998 18.9C36.0756 18.9005 35.669 19.0692 35.3691 19.3691C35.0692 19.669 34.9005 20.0756 34.9 20.4998ZM37.1627 20.5C37.1627 20.6311 37.1238 20.7592 37.051 20.8682C36.9782 20.9772 36.8747 21.0621 36.7536 21.1123C36.6325 21.1625 36.4992 21.1756 36.3706 21.1501C36.2421 21.1245 36.124 21.0614 36.0313 20.9687C35.9386 20.876 35.8754 20.7579 35.8498 20.6293C35.8243 20.5008 35.8374 20.3675 35.8875 20.2464C35.9377 20.1253 36.0227 20.0217 36.1317 19.9489C36.2407 19.8761 36.3688 19.8372 36.4999 19.8372V19.7372L36.4998 19.8372C36.6755 19.8374 36.844 19.9073 36.9683 20.0315C37.0926 20.1558 37.1625 20.3243 37.1627 20.5Z" fill="white" stroke="white" stroke-width="0.2"/>
</g>
<defs>
<clipPath id="clip0_74_794">
<rect width="64" height="64" fill="white"/>
</clipPath>
</defs>
</svg>
