<svg width="57" height="65" viewBox="0 0 57 65" fill="none" xmlns="http://www.w3.org/2000/svg">
<path d="M49.4621 44.3745L47.2216 38.4687C50.8154 34.249 52.7872 28.9011 52.7872 23.342C52.7872 10.4711 42.316 0 29.4452 0C16.5743 0 6.1032 10.4711 6.1032 23.342V26.1518L0.113598 37.1322C-0.1413 37.5999 0.0486337 38.2044 0.524707 38.4424L6.1032 41.2314V52.8536C6.1032 53.3807 6.53018 53.8077 7.05683 53.8077H22.8699L26.5079 64.3587C26.6864 64.8759 27.284 65.1402 27.7873 64.924C28.2401 64.7296 28.4722 64.2025 28.312 63.7368L24.4519 52.5426C24.319 52.1578 23.9569 51.8994 23.5498 51.8994H8.01096V40.6418C8.01096 40.2808 7.80714 39.9505 7.48381 39.7888L2.26238 37.1779L7.89442 26.852C7.97129 26.7117 8.01096 26.5545 8.01096 26.3953V23.342C8.01096 11.5235 17.6267 1.90826 29.4452 1.90826C41.2637 1.90826 50.8794 11.5235 50.8794 23.342C50.8794 28.6254 48.9389 33.7015 45.416 37.6356C45.1784 37.9009 45.1085 38.2768 45.2349 38.6106L47.6778 45.0514C47.8648 45.5439 48.4152 45.7918 48.9081 45.6049C49.4011 45.4179 49.6485 44.867 49.4621 44.3745Z" fill="#CB9C68"/>
<path d="M56.7955 63.7095L51.0053 48.4443C50.8188 47.9519 50.2679 47.704 49.7749 47.8904C49.2825 48.0774 49.0345 48.6283 49.2215 49.1213L55.0117 64.3859C55.2056 64.8977 55.8111 65.1436 56.3076 64.912C56.7544 64.7038 56.9706 64.1697 56.7955 63.7095Z" fill="#CB9C68"/>
<path d="M39.3193 9.01515C38.1539 7.84977 36.2575 7.84977 35.0917 9.01515L17.102 27.0048C17.0222 27.0846 16.9552 27.1818 16.9086 27.2845L13.3103 35.2002C12.9542 35.9837 13.7869 36.8208 14.5739 36.4633L22.4891 32.8654C22.5918 32.8183 22.6889 32.7514 22.7688 32.6715L40.7584 14.6819C41.9109 13.5299 41.9109 11.6068 40.7584 10.4548L39.3193 9.01515ZM22.0944 30.6477L19.1263 27.6792L33.6074 13.1977L36.5759 16.1662L22.0944 30.6477ZM18.076 29.3276L20.4464 31.6981L16.1003 33.6738L18.076 29.3276ZM39.4095 13.3325L37.9253 14.8168L34.9568 11.8488L36.441 10.3645C36.8625 9.943 37.5484 9.943 37.9699 10.3645L39.4095 11.8037C39.8261 12.2207 39.8261 12.916 39.4095 13.3325Z" fill="white"/>
</svg>
