<svg width="28" height="28" viewBox="0 0 28 28" fill="none" xmlns="http://www.w3.org/2000/svg">
<path d="M13.8 0C6.18558 0 0 6.18558 0 13.8C0 21.4144 6.18558 27.6 13.8 27.6C21.4144 27.6 27.6 21.4144 27.6 13.8C27.6 6.18558 21.4144 0 13.8 0ZM13.8 1.2C20.7659 1.2 26.4 6.83411 26.4 13.8C26.4 20.7659 20.7659 26.4 13.8 26.4C6.83411 26.4 1.2 20.7659 1.2 13.8C1.2 6.83411 6.83411 1.2 13.8 1.2ZM7.80117 9.6L5.38008 9.60117C5.38008 9.60117 5.24154 9.59336 5.07422 9.61523C4.9069 9.6371 4.65972 9.64726 4.40625 9.93398L4.40508 9.93516L4.40391 9.93633C4.17845 10.1942 4.18705 10.4942 4.21523 10.6594C4.24331 10.8239 4.30618 10.9467 4.30664 10.9477V10.9488C4.32992 11.0059 6.08783 15.3132 8.30391 17.6273C9.86706 19.2608 11.5388 19.8 13.0277 19.8H13.8C14.0541 19.8 14.281 19.7884 14.5324 19.6582C14.7839 19.528 15 19.1685 15 18.8895C15 18.5887 15.0074 18.2972 15.0457 18.1348C15.0815 17.983 15.0677 18.0203 15.082 18.0199C15.0964 18.023 15.1226 18.0291 15.1723 18.0516C15.2793 18.1 15.4447 18.208 15.6281 18.3504C15.9944 18.6348 16.4283 19.0473 16.9148 19.3664C17.6117 19.8283 18.368 19.8 18.368 19.8H20.8617L20.8887 19.7977C20.8887 19.7977 21.2713 19.789 21.6645 19.548C21.861 19.4276 22.0946 19.2066 22.173 18.8754C22.2515 18.5442 22.1513 18.1966 21.9586 17.891C21.8882 17.7789 21.5464 17.2835 20.182 16.0723C19.8296 15.7597 19.5892 15.5384 19.4941 15.4207C19.4604 15.3789 19.4576 15.383 19.4508 15.3809C19.4587 15.3603 19.5376 15.1943 19.7484 14.9203C19.9682 14.6347 20.3022 14.2368 20.7316 13.6898C21.279 12.9925 21.663 12.322 21.9047 11.7563C22.0255 11.4734 22.1112 11.2167 22.1625 10.984C22.2138 10.7513 22.2548 10.5579 22.1789 10.282C22.1223 10.0767 21.9686 9.89278 21.818 9.7957C21.6673 9.69863 21.5269 9.66206 21.4008 9.63867C21.1486 9.5919 20.9262 9.6 20.7188 9.6C20.2845 9.6 18.3539 9.61523 18.1945 9.61523C18.0075 9.61523 17.7092 9.69312 17.5711 9.77227C17.2283 9.96856 17.1211 10.2375 17.1211 10.2375L17.0883 10.2949L17.0695 10.3594C17.0695 10.3594 16.6299 11.7815 16.1777 12.5145H16.1766C15.6448 13.3779 15.2482 13.7204 15.0738 13.8176C15.0553 13.8279 15.0656 13.8224 15.0527 13.8293C15.0391 13.7896 15.0219 13.7349 15.0105 13.6336C14.985 13.4055 15 13.0842 15 12.7734C15 11.9128 15.0646 11.3761 14.993 10.868C14.9571 10.6139 14.8659 10.331 14.6578 10.1133C14.4497 9.89561 14.1809 9.78846 13.9125 9.72656H13.9113C13.6316 9.66214 13.3301 9.60682 12.6059 9.6C11.6831 9.5914 11.0821 9.62 10.548 9.85781L10.5422 9.86133L10.5375 9.86367C10.3265 9.96279 10.1602 10.0764 10.0137 10.2281C9.94043 10.304 9.85353 10.3592 9.79336 10.6008C9.76327 10.7216 9.75997 10.9501 9.89648 11.1352C10.033 11.3203 10.2243 11.3761 10.3371 11.3906C10.3163 11.3879 10.4259 11.412 10.5105 11.4539C10.5952 11.4958 10.6688 11.5561 10.6875 11.5805V11.5816C10.6797 11.5715 10.761 11.7736 10.7824 11.9578C10.8038 12.142 10.8 12.2906 10.8 12.2906L10.7988 12.327L10.8023 12.3633C10.8023 12.3633 10.8392 12.771 10.8199 13.1918C10.8103 13.4022 10.7837 13.614 10.7484 13.7438C10.7466 13.7506 10.7457 13.7482 10.7438 13.7543C10.5935 13.6494 10.2471 13.2838 9.76992 12.4957C9.32878 11.7667 8.91563 10.4555 8.91563 10.4555L8.90625 10.4262L8.8957 10.398C8.8957 10.398 8.81867 10.1051 8.47852 9.86602C8.15969 9.64157 7.85625 9.61055 7.85625 9.61055L7.80117 9.6ZM7.66172 10.8C7.69604 10.8125 7.76779 10.8384 7.78125 10.8445L7.76719 10.8023C7.76719 10.8023 7.78566 10.8448 7.78594 10.8457C7.78609 10.8458 7.78822 10.8468 7.78828 10.8469V10.848H7.78945C7.7593 10.827 7.78486 10.8479 7.78828 10.8527C7.80485 10.9093 8.17122 12.1713 8.74336 13.1168C9.26457 13.9776 9.64963 14.4598 10.0699 14.748C10.4898 15.036 11.0544 15.0063 11.3414 14.857C11.7249 14.6579 11.8322 14.3305 11.9062 14.0578C11.9803 13.7851 12.0068 13.5085 12.0188 13.2469C12.0416 12.7477 12.0025 12.3393 11.9988 12.2988C11.9994 12.2763 12.0048 12.0812 11.9742 11.8184C11.9434 11.5535 11.8882 11.2243 11.6531 10.8938C11.9165 10.8546 12.0627 10.795 12.5941 10.8C13.2719 10.8064 13.375 10.8347 13.6418 10.8961C13.7871 10.9296 13.8032 10.9574 13.7895 10.943C13.7757 10.9286 13.7883 10.919 13.8047 11.0355C13.8376 11.2687 13.8 11.8665 13.8 12.7734C13.8 13.0291 13.7753 13.3896 13.8176 13.7672C13.8598 14.1445 13.9777 14.6273 14.434 14.9098C14.6939 15.0707 15.1905 15.126 15.6586 14.8652C16.1266 14.6045 16.607 14.1043 17.1984 13.1438C17.7827 12.1967 18.1321 10.9515 18.1699 10.8199C18.1699 10.8199 18.1766 10.8156 18.1805 10.8129C18.1911 10.8134 18.1776 10.8152 18.1945 10.8152C18.4168 10.8152 20.313 10.8 20.7188 10.8C20.8304 10.8 20.8794 10.806 20.9625 10.8094C20.9289 10.9389 20.8837 11.0898 20.8008 11.284C20.6058 11.7405 20.2712 12.3325 19.7871 12.9492C19.37 13.4805 19.0459 13.8658 18.798 14.1879C18.5502 14.5099 18.3555 14.764 18.2742 15.1313C18.1929 15.4985 18.3481 15.9128 18.5602 16.1754C18.7723 16.438 19.0347 16.6591 19.3852 16.9699C20.7052 18.1419 20.9218 18.4966 20.9426 18.5297V18.5309C20.9649 18.5662 20.9504 18.5307 20.959 18.5484C20.8841 18.5718 20.795 18.5982 20.7867 18.6H18.3586H18.3551C18.3551 18.6 17.9085 18.5854 17.577 18.3656L17.5758 18.3645H17.5746C17.2239 18.1347 16.8 17.7408 16.3641 17.4023C16.1461 17.2331 15.9242 17.0746 15.6668 16.9582C15.4094 16.8418 15.0832 16.7593 14.7398 16.8621C14.2429 17.0109 13.9671 17.4838 13.8785 17.8594C13.8149 18.129 13.8243 18.3634 13.8223 18.5988C13.8052 18.5997 13.82 18.6 13.8 18.6H13.0277C11.8082 18.6 10.5395 18.2277 9.17109 16.7977C7.39199 14.9398 5.80468 11.347 5.56641 10.8012L7.66172 10.8ZM18.1277 10.8047C18.1168 10.8071 18.148 10.8095 18.1734 10.8117C18.17 10.8136 18.1737 10.8101 18.1688 10.8129C18.1682 10.8029 18.1424 10.8014 18.1277 10.8047Z" fill="white" fill-opacity="0.8"/>
</svg>
