<svg width="64" height="64" viewBox="0 0 64 64" fill="none" xmlns="http://www.w3.org/2000/svg">
<path d="M59.5701 15.7618C58.9096 14.7142 57.3594 15.6246 57.9547 16.7123C60.5049 21.0472 61.9225 25.9758 62.0791 31.0221H54.3628C54.2313 24.4317 52.7138 18.1766 50.0109 12.9558C51.4974 12.573 52.906 12.1403 54.2214 11.6595C54.6896 12.1733 55.1443 12.7029 55.5807 13.2529C55.9025 13.6583 56.492 13.7259 56.8973 13.4043C57.3027 13.0825 57.3704 12.493 57.0487 12.0876C45.8357 -2.74883 22.1968 -4.10443 9.36198 9.34087C-10.7065 29.3389 3.64519 63.9978 31.9811 63.9466C56.5215 64.1129 72.1005 36.8264 59.5701 15.7618ZM54.1896 52.2736C52.8798 51.7962 51.4778 51.3664 49.9985 50.9859C52.7092 45.7604 54.2311 39.4966 54.3628 32.8963H62.0781C61.849 40.3495 58.8992 47.1292 54.1896 52.2736ZM9.77682 52.2791C5.06427 47.134 2.11241 40.3521 1.88325 32.8963H9.59852C9.73034 39.4986 11.2531 45.764 13.9652 50.9905C12.4869 51.3712 11.0858 51.8014 9.77682 52.2791ZM9.75833 11.6591C11.0689 12.1383 12.4723 12.5695 13.9528 12.9513C11.2484 18.173 9.73022 24.4297 9.59852 31.022H1.88338C2.11216 23.5759 5.05652 16.8017 9.75833 11.6591ZM38.0188 7.66114C37.2879 5.36628 36.4746 3.58184 35.5845 2.31121C40.1293 3.49788 44.1614 6.88794 47.1479 11.6995C44.7029 12.2114 42.077 12.5944 39.3294 12.8394C38.9475 10.9404 38.5085 9.19892 38.0188 7.66114ZM36.233 8.22992C36.6837 9.64537 37.0903 11.2436 37.4474 12.9851C33.8945 13.2185 30.0666 13.2181 26.5143 12.9838C28.0962 5.23021 31.9939 -4.87451 36.233 8.22992ZM38.9212 24.5037C38.4257 24.292 38.0146 23.911 37.7706 23.4188L35.7159 19.2731C34.2484 16.2096 29.713 16.2093 28.2457 19.2733L26.191 23.4187C25.9469 23.911 25.5359 24.292 25.0404 24.5037C25.2653 21.0492 25.6473 17.7755 26.1624 14.8375C29.9429 15.0989 34.0183 15.0993 37.7995 14.8387C38.3143 17.7766 38.6963 21.0496 38.9212 24.5037ZM25.9477 7.6454C25.4561 9.18643 25.0153 10.9328 24.6322 12.8376C21.885 12.592 19.2599 12.2084 16.8157 11.6958C19.8019 6.88619 23.8331 3.4975 28.3769 2.31109C27.4887 3.5791 26.6772 5.35816 25.9477 7.6454ZM24.2872 14.6878C23.7515 17.787 23.3599 21.233 23.1399 24.858L19.8703 25.3311C17.2281 25.6548 15.5621 28.607 16.6143 31.0221H11.4734C11.6124 24.3889 13.2191 18.2887 15.8332 13.4003C18.4666 13.9809 21.3082 14.414 24.2872 14.6878ZM11.4734 32.8963H18.0586L20.887 35.6414C21.3843 36.1241 21.6325 36.7954 21.5678 37.4829C21.5192 37.9982 21.8976 38.4552 22.4129 38.5037C22.9285 38.5532 23.3853 38.1738 23.4338 37.6585C23.5521 36.4024 23.0997 35.1769 22.1924 34.2965L18.8677 31.0696C18.2319 30.4526 18.015 29.5823 18.2873 28.7417C18.5614 27.8956 19.2535 27.3139 20.1386 27.1858L24.7333 26.5211C26.0899 26.3248 27.2626 25.4762 27.8699 24.2511L29.9247 20.1056C30.3193 19.3096 31.0878 18.8344 31.9805 18.8344C32.8733 18.8344 33.6417 19.3096 34.0363 20.1056L36.091 24.2512C36.6983 25.4762 37.871 26.3248 39.2277 26.5212L43.8224 27.186C44.7074 27.3139 45.3995 27.8956 45.6737 28.7419C45.9461 29.5824 45.729 30.4526 45.0933 31.0697L41.7686 34.2965C40.7853 35.2507 40.3369 36.6254 40.569 37.9737L41.3539 42.53C41.5037 43.3996 41.1658 44.23 40.4501 44.7514C39.7262 45.2786 38.8207 45.3449 38.0271 44.9297L33.9174 42.7784C32.7045 42.1436 31.2561 42.1434 30.043 42.7784L25.9333 44.9296C25.1398 45.3448 24.2341 45.2785 23.5104 44.7513C22.7945 44.2299 22.4567 43.3994 22.6065 42.53L22.6907 42.0415C22.7787 41.5314 22.4364 41.0467 21.9264 40.9588C21.4166 40.8708 20.9316 41.213 20.8438 41.7231L20.7594 42.2118C20.3495 44.3343 21.8288 46.5087 23.9267 46.9621C24.0244 47.6439 24.1453 48.4201 24.2912 49.2566C21.316 49.5299 18.4768 49.9623 15.8452 50.5419C13.2241 45.6496 11.6126 39.5402 11.4734 32.8963ZM25.8202 46.9561C26.5044 46.8792 30.2254 44.7512 30.9126 44.4392C31.5815 44.0891 32.38 44.089 33.0486 44.439C33.7525 44.7597 37.4334 46.8665 38.1409 46.9577C38.0323 47.7023 37.9176 48.4188 37.7972 49.1056C34.0167 48.8451 29.9445 48.8456 26.1644 49.107C26.044 48.4191 25.9291 47.7018 25.8202 46.9561ZM24.6397 51.1063C25.3822 54.7737 26.5718 59.0326 28.3769 61.607C23.8406 60.4226 19.8154 57.0429 16.8307 52.2459C19.2731 51.7345 21.896 51.3516 24.6397 51.1063ZM26.5163 50.9609C30.0683 50.7265 33.8931 50.726 37.4455 50.9595C34.1568 65.7692 29.8074 65.7737 26.5163 50.9609ZM39.3221 51.1046C42.0665 51.3491 44.6898 51.7313 47.133 52.2421C44.1484 57.0405 40.1228 60.4215 35.5861 61.6065C37.3895 59.0346 38.5786 54.7798 39.3221 51.1046ZM39.6701 49.2548C39.8156 48.4215 39.9362 47.6462 40.0342 46.9628C42.1323 46.5076 43.6114 44.3353 43.2015 42.2118L42.4167 37.6554C42.2895 36.9173 42.5354 36.1644 43.0744 35.6413L45.9028 32.8961H52.488C52.349 39.5383 50.7382 45.6463 48.1179 50.5379C45.4855 49.9592 42.6459 49.5274 39.6701 49.2548ZM52.488 31.022H47.3472C48.3991 28.6059 46.7335 25.6552 44.0912 25.3309L40.8217 24.8579C40.6017 21.2334 40.2102 17.7881 39.6746 14.6894C42.6537 14.4164 45.4961 13.9841 48.1302 13.4039C50.7432 18.2917 52.3491 24.3905 52.488 31.022ZM52.7806 10.1802C51.6115 10.5784 50.3712 10.9391 49.0704 11.2611C47.3896 8.39611 45.0363 5.61106 42.6086 3.76965C46.3735 5.18547 49.8308 7.35414 52.7806 10.1802ZM16.0385 9.47032C15.6393 10.048 15.2577 10.6442 14.8933 11.2568C13.6 10.9361 12.3668 10.5771 11.2038 10.181C14.0895 7.42661 17.521 5.2402 21.3161 3.79826C19.3944 5.28506 17.6169 7.18608 16.0385 9.47032ZM11.2239 53.7563C12.3849 53.3618 13.6161 53.0042 14.9068 52.6846C16.5783 55.5259 18.9105 58.2867 21.3161 60.1199C17.5298 58.6812 14.1055 56.5016 11.2239 53.7563ZM47.9229 54.4478C48.318 53.876 48.696 53.2864 49.057 52.6804C50.3486 52.9996 51.5807 53.3571 52.7426 53.7516C49.8599 56.4991 46.4338 58.6804 42.6452 60.1199C44.5671 58.6332 46.3444 56.7322 47.9229 54.4478Z" fill="#CB9C68"/>
<path d="M37.707 30.1475C37.9975 31.0423 38.0735 31.9929 37.9288 32.9225C37.7842 33.8521 37.423 34.7347 36.8744 35.499C36.3257 36.2632 35.6051 36.8878 34.7705 37.3222C33.936 37.7566 33.0111 37.9886 32.0703 37.9996C31.1296 38.0106 30.1995 37.8003 29.355 37.3855C28.5106 36.9707 27.7755 36.3632 27.2092 35.612C26.6428 34.8607 26.261 33.9869 26.0947 33.0609C25.9284 32.1349 25.9821 31.1828 26.2516 30.2814L32.0002 32L37.707 30.1475Z" fill="white"/>
</svg>
