<svg width="32" height="32" viewBox="0 0 32 32" fill="none" xmlns="http://www.w3.org/2000/svg">
<g clip-path="url(#clip0_74_568)">
<path d="M31.6795 9.21537C31.6795 9.1085 31.3589 6.75796 30.3439 5.63609C29.1152 4.30056 27.7797 4.14029 27.0852 4.08683H26.8715C22.5443 3.76629 16.0802 3.71289 15.9734 3.71289C15.92 3.71289 9.40241 3.76629 5.12861 4.19369H4.96834C4.22034 4.24709 2.88481 4.40736 1.70954 5.7429C0.641068 6.86477 0.320534 9.26877 0.320534 9.37564C0.320534 9.37564 0 12.1002 0 14.8247V17.3356C0 20.0067 0.320534 22.7313 0.320534 22.7847C0.320534 22.8915 0.641068 25.2421 1.65607 26.3639C2.77794 27.6461 4.11348 27.8063 4.96828 27.9132C5.12854 27.9132 5.23541 27.9132 5.39568 27.9666C7.85308 28.1803 15.6528 28.2871 15.9733 28.2871C16.0267 28.2871 22.5442 28.2871 26.8715 27.8063H27.0317C27.7797 27.7529 29.1152 27.5927 30.2905 26.2571C31.3589 25.1352 31.6795 22.7312 31.6795 22.6243C31.6795 22.6243 32 19.8998 32 17.1753V14.6644C32 11.9933 31.6795 9.26877 31.6795 9.21537ZM30.9315 17.2821C30.9315 19.9533 30.611 22.6243 30.611 22.6243C30.5041 23.212 30.1836 24.9215 29.4891 25.6694C28.5809 26.7379 27.5125 26.8447 26.9249 26.8981H26.7646C22.4908 27.2187 16.0267 27.2187 15.9733 27.2187C15.9199 27.2187 7.90655 27.1118 5.55594 26.8447C5.39568 26.8447 5.23541 26.7913 5.07514 26.7913C4.32721 26.7379 3.2588 26.5777 2.40401 25.6161C1.76294 24.9216 1.389 23.2121 1.33554 22.6244C1.33554 22.571 1.015 19.8999 1.015 17.2822V14.7713C1.015 12.1002 1.33554 9.4291 1.33554 9.4291C1.38894 8.84143 1.76294 7.13196 2.40401 6.38403C3.36561 5.31556 4.38061 5.2087 5.02168 5.15529H5.18195C9.45575 4.83476 15.9198 4.78136 15.9732 4.78136C16.0266 4.78136 22.4908 4.83476 26.7645 5.15529H26.9782C27.5659 5.2087 28.6343 5.31556 29.5425 6.38403C30.1835 7.13196 30.5041 8.84143 30.6109 9.4291C30.6643 9.53597 30.9315 12.207 30.9315 14.7713V17.2821H30.9315Z" fill="white"/>
<path d="M22.6513 16.0535L12.501 10.1236C12.3408 10.0167 12.1271 10.0167 11.9668 10.1236C11.8066 10.2305 11.6997 10.3907 11.6997 10.6044V22.197C11.6997 22.4107 11.8066 22.571 11.9668 22.6778C12.0737 22.7312 12.1271 22.7312 12.234 22.7312C12.3408 22.7312 12.3942 22.7312 12.5011 22.6778L22.6513 17.0151C22.8116 16.9082 22.9185 16.748 22.9185 16.5343C22.9185 16.3206 22.8115 16.1603 22.6513 16.0535ZM12.7682 21.2888V11.5125L21.3157 16.5342L12.7682 21.2888Z" fill="white"/>
</g>
<defs>
<clipPath id="clip0_74_568">
<rect width="32" height="32" fill="white"/>
</clipPath>
</defs>
</svg>
